<?xml version="1.0" standalone="no"?>
<!DOCTYPE svg PUBLIC "-//W3C//DTD SVG 20010904//EN"
 "http://www.w3.org/TR/2001/REC-SVG-20010904/DTD/svg10.dtd">
<svg version="1.0" xmlns="http://www.w3.org/2000/svg"
 width="310.000000pt" height="310.000000pt" viewBox="0 0 310.000000 310.000000"
 preserveAspectRatio="xMidYMid meet">
<metadata>
Created by potrace 1.11, written by Peter Selinger 2001-2013
</metadata>
<g transform="translate(0.000000,310.000000) scale(0.100000,-0.100000)"
fill="#000000" stroke="none">
<path d="M442 3084 c-104 -28 -182 -74 -267 -159 -86 -86 -132 -164 -160 -271
-23 -88 -23 -2120 0 -2208 28 -107 74 -185 160 -271 86 -86 164 -132 271 -160
88 -23 2120 -23 2208 0 107 28 185 74 271 160 86 86 132 164 160 271 23 88 23
2120 0 2208 -28 107 -74 185 -160 271 -86 86 -164 132 -271 160 -85 22 -2130
21 -2212 -1z"/>
</g>
</svg>
